<?xml version="1.0" encoding="UTF-8"?> <svg xmlns="http://www.w3.org/2000/svg" width="872" height="175" viewBox="0 0 872 175" fill="none"> <g clip-path="url(#clip0_3372_191)"> <path d="M872.681 135.187C849.432 135.506 826.182 135.506 802.723 135.506C802.723 104.645 802.723 73.9715 802.723 42.8988C825.828 42.8988 848.935 42.8988 872.362 42.8988C872.681 48.8145 872.681 54.7301 872.362 60.9649C855.97 61.284 839.897 61.284 823.862 61.284C823.862 67.6425 823.862 73.5857 823.862 79.8483C838.439 79.8483 852.788 79.8483 867.075 79.8483C867.075 86.038 867.075 91.9004 867.075 98.0858C852.574 98.0858 838.225 98.0858 823.834 98.0858C823.834 104.583 823.834 110.752 823.834 117.121C840.252 117.121 856.466 117.121 872.681 117.121C872.681 123.036 872.681 128.952 872.681 135.187Z" fill="#F3BA2F"></path> <path d="M86.11 175.681C85.2882 174.786 84.8889 173.741 84.1673 173.018C67.9128 156.719 51.6622 140.416 35.292 124.235C33.1546 122.122 33.1259 120.932 35.2964 118.86C41.2733 113.156 47.0181 107.209 52.7401 101.473C64.075 112.819 75.267 124.022 86.442 135.208C98.1513 123.489 109.4 112.231 120.85 100.771C127.702 107.603 134.054 113.874 140.275 120.27C140.726 120.734 140.527 122.291 140.1 123.036C139.503 124.08 138.406 124.837 137.524 125.719C121.882 141.352 106.237 156.982 90.6028 172.623C89.7273 173.499 88.9327 174.456 88.3315 175.528C87.8359 175.681 87.1092 175.681 86.11 175.681Z" fill="#F3BA2F"></path> <path d="M88.9599 0.680908C89.7758 1.57524 90.1501 2.6268 90.8629 3.34082C106.891 19.3965 122.921 35.4511 139.059 51.396C141.127 53.4387 141.403 54.6329 139.162 56.7723C133.18 62.4832 127.45 68.4575 121.51 74.4367C110.104 63.0249 98.8482 51.7633 87.5135 40.423C75.9134 52.024 64.7131 63.2251 53.7536 74.1855C46.9543 67.3877 40.4062 60.8411 32.8353 53.2719C33.3911 52.9941 34.7642 52.6737 35.6151 51.8282C51.7087 35.8369 67.7424 19.7856 83.78 3.73812C84.6561 2.86153 85.4568 1.90967 86.065 0.836879C86.7837 0.680908 87.7299 0.680908 88.9599 0.680908Z" fill="#F3BA2F"></path> <path d="M0.681274 86.0955C1.49307 85.3241 2.4477 84.9947 3.09419 84.3544C8.56948 78.9316 13.9886 73.4521 19.1514 68.2642C25.851 74.9571 32.401 81.5005 38.6623 87.7556C32.36 94.0206 25.5629 100.778 18.1419 108.155C12.8659 102.603 6.93423 96.3618 0.84193 90.3423C0.681274 89.1739 0.681274 87.7837 0.681274 86.0955Z" fill="#F3BA2F"></path> <path d="M232.988 135.506C223.583 135.506 214.518 135.506 205.256 135.506C205.256 104.614 205.256 73.9303 205.256 42.8988C207.995 42.8988 210.686 42.8988 213.376 42.8988C226.774 42.8988 240.179 42.6376 253.568 42.989C262.77 43.2305 270.692 46.807 275.878 54.8447C282.308 64.8097 279.926 80.2332 268.171 86.683C270.876 88.4384 273.624 90.1313 276.273 91.9679C281.823 95.8171 284.009 101.293 284.124 107.912C284.222 113.583 283.868 118.994 280.442 123.887C276.298 129.805 270.311 132.441 263.65 134.156C253.63 136.736 243.432 134.983 232.988 135.506ZM225.493 107.924C225.493 110.938 225.493 113.953 225.493 117.119C235.003 117.119 244.082 117.398 253.128 116.977C256.599 116.816 260.338 115.88 262.385 112.085C265.213 106.841 262.938 99.7036 256.518 98.904C246.331 97.6351 236.012 97.4197 225.493 96.7422C225.493 100.93 225.493 104.089 225.493 107.924ZM235.375 61.2848C232.138 61.2848 228.902 61.2848 225.714 61.2848C225.714 67.8725 225.714 74.0309 225.714 80.9515C234.335 80.284 242.71 79.872 251.02 78.9023C255.883 78.3349 258.186 75.16 258.194 70.5319C258.202 65.8626 255.891 62.6642 251.139 62.0559C246.16 61.4184 241.087 61.5112 235.375 61.2848Z" fill="#F3BA2F"></path> <path d="M404.822 108.768C398.204 100.109 391.763 91.626 385.315 83.1487C384.198 81.6794 383.05 80.2327 381.617 78.3901C381.617 97.549 381.617 116.295 381.617 135.273C374.511 135.273 367.658 135.273 360.591 135.273C360.591 104.643 360.591 73.9666 360.591 42.9035C366.677 42.9035 372.768 42.794 378.848 43.0053C379.932 43.043 381.234 44.2089 381.99 45.195C392.032 58.2939 401.998 71.4515 411.976 84.5995C415.29 88.9667 418.586 93.3484 422.349 98.3314C422.349 79.4733 422.349 61.3895 422.349 43.1031C429.436 43.1031 436.287 43.1031 443.317 43.1031C443.317 73.83 443.317 104.506 443.317 135.505C437.686 135.505 432.156 135.563 426.63 135.443C425.776 135.425 424.67 134.8 424.135 134.105C417.706 125.757 411.362 117.343 404.822 108.768Z" fill="#F3BA2F"></path> <path d="M667.632 135.389C662.187 135.428 656.735 135.613 651.3 135.392C650.096 135.344 648.66 134.09 647.821 133.011C638.768 121.367 629.776 109.675 620.846 97.9366C615.951 91.5027 611.205 84.9557 605.783 77.6384C605.783 97.4617 605.783 116.289 605.783 135.31C598.792 135.31 592.167 135.31 585.367 135.31C585.367 104.566 585.367 73.8894 585.367 42.9005C591.467 42.9005 597.452 42.8593 603.434 42.9542C604.158 42.9657 605.096 43.5404 605.555 44.1431C617.307 59.5929 628.996 75.0911 640.733 90.5524C642.606 93.0197 644.657 95.3516 647.02 98.2254C647.02 79.589 647.02 61.4454 647.02 42.9137C653.921 42.9137 660.461 42.9137 667.315 43.2762C667.63 74.2223 667.631 104.806 667.632 135.389Z" fill="#F3BA2F"></path> <path d="M525.028 44.4384C537.975 74.7653 550.753 104.872 563.75 135.493C556.399 135.493 549.531 135.543 542.666 135.406C542.061 135.394 541.26 134.258 540.924 133.482C538.3 127.413 535.768 121.305 533.152 115.079C520.875 115.079 508.621 115.029 496.37 115.183C495.492 115.194 494.27 116.523 493.825 117.516C491.483 122.748 489.128 127.994 487.239 133.397C486.567 135.319 485.681 135.521 484.115 135.515C477.76 135.492 471.405 135.506 464.724 135.506C468.06 127.624 471.306 119.929 474.572 112.242C483.626 90.9326 492.688 69.6273 501.745 48.3199C504.339 42.219 504.336 42.2178 510.962 42.2179C514.594 42.2179 518.236 42.0725 521.853 42.3099C522.893 42.3782 523.859 43.5515 525.028 44.4384ZM506.665 96.6926C512.953 96.6926 519.24 96.6926 525.805 96.6926C521.838 87.0132 518.007 77.6688 513.967 67.8119C509.94 77.683 506.108 87.0784 502.186 96.6926C503.772 96.6926 504.904 96.6926 506.665 96.6926Z" fill="#F3BA2F"></path> <path d="M693.513 94.0025C692.84 87.026 693.537 80.5657 695.455 74.0907C698.218 64.762 703.645 57.3434 710.907 51.2177C717.018 46.0631 724.352 43.0117 732.144 41.7306C745.09 39.6021 757.679 41.2535 769.242 47.7497C772.774 49.7339 775.696 52.8036 779.071 55.5167C774.363 60.8827 769.949 65.9137 765.285 71.2287C757.57 63.7711 748.748 59.4011 738.078 60.7097C732.421 61.4035 727.044 63.8107 723.27 68.118C711.12 81.9832 713.425 99.6381 723.089 109.926C731.955 119.365 748.365 123.442 766.036 107.039C770.436 111.458 774.834 115.879 779.476 120.545C774.475 126.407 768.362 130.987 761.232 133.953C753.848 137.024 745.91 138.021 737.986 137.459C727.245 136.697 717.559 133.031 709.271 125.802C699.649 117.41 694.577 106.905 693.513 94.0025Z" fill="#F3BA2F"></path> <path d="M330.406 51.7581C330.406 79.744 330.406 107.39 330.406 135.271C323.425 135.271 316.576 135.271 309.506 135.271C309.506 104.68 309.506 74.024 309.506 43.1332C316.269 43.1332 323.118 43.1332 330.406 43.1332C330.406 45.8445 330.406 48.6315 330.406 51.7581Z" fill="#F3BA2F"></path> <path d="M105.092 90.7266C99.0898 96.7301 93.2613 102.563 87.6417 108.187C80.6904 101.236 73.9137 94.4595 67.4231 87.9692C73.8533 81.5266 80.6179 74.749 87.0425 68.312C93.3761 74.6477 100.203 81.4765 107.212 88.4887C106.929 88.7895 106.097 89.6728 105.092 90.7266Z" fill="#F3BA2F"></path> <path d="M166.41 78.8039C169.499 81.8021 172.418 84.63 175.145 87.2728C168.128 94.2645 161.405 100.963 154.804 107.54C148.553 101.295 141.855 94.6047 134.243 87.001C136.254 85.3445 138.615 83.6217 140.713 81.6234C144.653 77.8704 148.606 74.1053 152.232 70.0575C154.457 67.5746 155.845 67.9083 157.86 70.1799C160.488 73.1437 163.431 75.8287 166.41 78.8039Z" fill="#F3BA2F"></path> </g> <defs> <clipPath id="clip0_3372_191"> <rect width="872" height="175" fill="white"></rect> </clipPath> </defs> </svg> 