<?xml version="1.0" encoding="UTF-8"?> <svg xmlns="http://www.w3.org/2000/svg" width="818" height="144" viewBox="0 0 818 144" fill="none"> <g clip-path="url(#clip0_3372_170)"> <path d="M818.327 111.119C815.329 111.273 812.301 111.014 809.341 111.349C806.658 111.653 805.311 110.266 803.928 108.454C800.621 104.123 797.256 99.8365 793.912 95.5347C791.157 91.9915 788.398 88.4515 785.64 84.9111C782.621 81.0356 779.592 77.1671 776.582 73.2846C773.798 69.6935 771.04 66.0818 768.255 62.4907C766.422 60.1273 764.564 57.7845 762.461 55.1071C762.461 74.235 762.461 92.9839 762.461 111.83C757.677 111.83 753.078 111.83 748.393 111.83C748.393 85.0496 748.393 58.3103 748.393 31.4191C752.428 31.4191 756.395 31.3575 760.356 31.4807C761.005 31.5009 761.772 32.2212 762.241 32.8117C766.557 38.2528 770.832 43.7264 775.092 49.2111C778.3 53.3409 781.442 57.5223 784.663 61.6414C788.09 66.0231 791.594 70.344 795.03 74.7184C798.031 78.5389 800.984 82.3968 804.165 86.5052C804.165 67.8051 804.165 49.3865 804.165 30.7637C808.906 30.7637 813.463 30.7637 818.174 30.7637C818.327 57.4977 818.327 84.2318 818.327 111.119Z" fill="#F0B90B"></path> <path d="M0.327148 63.9716C2.72384 65.1791 5.14242 66.5033 7.51067 67.912C9.61491 69.1638 11.6081 70.6131 13.7641 71.7614C14.6014 72.2074 14.7378 72.6376 14.7359 73.4342C14.7166 81.7773 14.7379 90.1205 14.7074 98.4636C14.7034 99.5748 14.9046 100.218 16.0442 100.853C23.3027 104.898 30.4715 109.103 37.6815 113.235C38.5939 113.758 39.0038 114.369 38.9811 115.508C38.8946 119.869 38.9462 124.232 38.9462 128.595C38.9462 129.123 38.9462 129.651 38.9462 130.701C25.912 123.129 13.2299 115.761 0.437482 108.36C0.327148 93.5932 0.327148 78.859 0.327148 63.9716Z" fill="#F0B90B"></path> <path d="M63.0188 0.327271C67.401 2.83462 71.6454 5.35384 75.9056 7.84609C80.4538 10.5068 85.013 13.149 89.575 15.7862C92.7546 17.6243 95.9477 19.4389 99.1328 21.2675C99.774 21.6356 100.406 22.0194 101.227 22.5051C99.0685 23.6996 97.0273 24.8358 94.9799 25.9605C92.4542 27.348 89.9471 28.7735 87.3739 30.0671C86.8767 30.3171 85.9902 30.2512 85.4898 29.9671C77.9905 25.7094 70.5289 21.3854 63.0413 17.1069C62.7653 16.9492 62.2425 16.9634 61.9576 17.1205C57.7102 19.4621 53.4772 21.8301 49.2539 24.2151C45.6823 26.2321 42.1359 28.2938 38.5497 30.2842C38.2709 30.4389 37.7081 30.293 37.3761 30.1087C32.9678 27.6617 28.5771 25.1828 23.8848 22.5447C25.7233 21.4691 27.3074 20.5406 28.8932 19.6149C36.3425 15.2663 43.7869 10.9093 51.2443 6.57455C54.7396 4.54284 58.2603 2.55478 61.8052 0.437106C62.1899 0.327271 62.5389 0.327271 63.0188 0.327271Z" fill="#F0B90B"></path> <path d="M0.327148 36.1534C4.33269 33.5756 8.36714 31.197 12.3256 28.698C13.4678 27.977 14.2895 27.7012 15.5868 28.5006C19.7086 31.0406 23.9412 33.4006 28.1261 35.8387C28.2566 35.9147 28.3329 36.0837 28.5868 36.3979C26.1119 37.8728 23.6788 39.336 21.2324 40.7767C19.1698 41.9914 17.0672 43.1408 15.0434 44.4161C14.6784 44.6461 14.4349 45.3442 14.4306 45.8289C14.3866 50.7847 14.4037 55.7411 14.4037 61.2551C9.58455 58.2993 5.06599 55.5278 0.437286 52.7236C0.327149 47.2295 0.327149 41.7681 0.327148 36.1534Z" fill="#F0B90B"></path> <path d="M358.938 112.909C353.224 112.909 347.674 112.909 342.024 112.909C342.024 86.0618 342.024 59.3255 342.024 32.3995C342.623 32.3995 343.203 32.3995 343.783 32.3995C355.775 32.3989 367.769 32.2625 379.758 32.4492C386.804 32.559 393.59 34.0841 399.152 38.8013C401.964 41.1856 403.839 44.2917 404.813 47.9332C406.009 52.4052 405.904 56.7839 404.303 61.1227C402.657 65.5837 399.353 68.5276 395.397 70.8651C397.331 71.9648 399.353 72.9896 401.246 74.2151C406.9 77.876 409.641 83.087 409.697 89.8664C409.734 94.2726 409.102 98.3922 406.573 102.105C404.049 105.81 400.575 108.299 396.492 109.943C390.96 112.17 385.181 113.027 379.215 112.933C372.512 112.828 365.806 112.909 358.938 112.909ZM372.844 97.2C375.349 97.2 377.862 97.3261 380.355 97.1602C382.363 97.0266 384.44 96.8097 386.325 96.1599C392.213 94.1297 393.593 88.0297 390.609 83.685C388.828 81.0922 385.929 80.2828 383.006 80.2288C375.44 80.0889 367.871 80.1807 360.303 80.1856C359.885 80.1859 359.468 80.2376 359.043 80.2658C359.043 85.9494 359.043 91.5245 359.043 97.2C363.604 97.2 368.061 97.2 372.844 97.2ZM371.208 64.7996C374.699 64.579 378.237 64.6425 381.666 64.0612C385.397 63.4287 387.804 60.9176 387.954 57.04C388.067 54.094 387.089 51.4401 384.303 49.6668C382.262 48.3687 380.05 47.8838 377.791 47.8276C372.185 47.6883 366.574 47.7803 360.966 47.7852C360.547 47.7856 360.129 47.8321 359.696 47.858C359.696 53.5441 359.696 59.1197 359.696 64.7996C363.493 64.7996 367.187 64.7996 371.208 64.7996Z" fill="#F0B90B"></path> <path d="M167.199 37.3105C167.199 35.6298 167.199 34.1125 167.199 32.3995C167.889 32.3995 168.468 32.3996 169.047 32.3995C181.039 32.399 193.033 32.2643 205.023 32.4488C212.07 32.5572 218.844 34.0964 224.427 38.7882C227.352 41.2456 229.282 44.5016 230.215 48.2055C231.18 52.0358 231.155 55.8933 230.043 59.7555C228.564 64.8928 225.077 68.2395 220.606 70.9166C222.178 71.7413 223.787 72.4975 225.31 73.3996C231.487 77.0588 234.884 82.3187 234.974 89.6823C235.028 94.0881 234.429 98.2464 231.957 101.955C228.616 106.966 223.646 109.641 218.034 111.255C213.248 112.632 208.343 112.987 203.361 112.942C191.969 112.838 180.576 112.909 169.184 112.909C168.592 112.909 168 112.909 167.199 112.909C167.199 87.6969 167.199 62.5854 167.199 37.3105ZM184.214 85.9095C184.214 89.6437 184.214 93.3779 184.214 97.1986C191.83 97.1986 199.228 97.2577 206.624 97.1536C208.296 97.13 210.031 96.7385 211.615 96.1735C217.502 94.0739 218.864 88.0047 215.877 83.6745C214.094 81.0906 211.196 80.2787 208.266 80.2266C200.755 80.0929 193.241 80.1805 185.728 80.1859C185.257 80.1862 184.786 80.2408 184.214 80.2765C184.214 82.1153 184.214 83.8489 184.214 85.9095ZM195.502 64.7997C199.103 64.5789 202.746 64.6231 206.293 64.0606C209.639 63.5298 212.024 61.416 212.53 57.8615C212.941 54.9824 212.318 52.2996 210.058 50.2385C207.903 48.2738 205.143 47.9264 202.447 47.8289C197.767 47.6597 193.076 47.7819 188.389 47.782C187.042 47.782 185.696 47.782 184.314 47.782C184.314 53.5314 184.314 59.1101 184.314 64.7997C188 64.7997 191.587 64.7997 195.502 64.7997Z" fill="#F0B90B"></path> <path d="M267.973 112.174C267.712 112.522 267.454 112.88 267.195 112.882C261.64 112.914 256.085 112.906 250.42 112.906C250.42 86.0796 250.42 59.3381 250.42 32.4899C250.712 32.461 251.021 32.4044 251.33 32.404C256.019 32.3982 260.708 32.3598 265.395 32.443C266.093 32.4554 267.021 32.8627 267.437 33.4008C272.304 39.6915 277.077 46.0548 281.908 52.3739C287.68 59.9255 293.478 67.4583 299.281 74.9868C300.84 77.0095 302.458 78.9869 304.242 81.2274C304.242 64.8467 304.242 48.7127 304.242 32.4897C310.225 32.4897 316.024 32.4897 321.897 32.4897C321.897 59.2555 321.897 85.9591 321.897 112.909C320.964 112.909 320.009 112.909 319.054 112.909C315.238 112.909 311.42 112.949 307.605 112.868C307.003 112.855 306.22 112.445 305.845 111.965C300.253 104.809 294.691 97.629 289.173 90.4151C285.22 85.2465 281.359 80.008 277.428 74.822C274.492 70.9478 271.512 67.1069 268.544 63.256C268.458 63.1439 268.3 63.087 267.976 62.8723C267.976 79.3646 267.976 95.691 267.973 112.174Z" fill="#F0B90B"></path> <path d="M36.8837 42.764C37.6625 42.643 38.4862 42.3284 38.9981 42.6005C43.0449 44.7521 47.0438 46.9953 51.0346 49.2505C54.6505 51.2939 58.2232 53.4144 61.8583 55.4223C62.2621 55.6453 63.048 55.5272 63.4911 55.2756C70.7632 51.1465 78.0311 47.0088 85.2317 42.7572C86.1409 42.2204 86.755 42.1721 87.5593 42.6273C91.779 45.0158 95.9979 47.4059 100.112 49.7362C100 50.3496 99.8124 50.9098 99.8096 51.4708C99.7859 56.2142 99.7522 60.9584 99.8321 65.7005C99.8486 66.6791 99.4397 67.2165 98.7457 67.6151C91.1701 71.9661 83.581 76.2936 75.9103 80.6763C75.9103 88.4813 75.7945 96.3315 75.9718 104.175C76.0358 107.007 75.5618 108.881 72.694 110.216C69.4839 111.71 66.5999 113.91 63.5905 115.828C62.4354 116.565 61.472 116.586 60.2338 115.773C56.8097 113.524 53.2894 111.419 49.7566 109.342C48.5837 108.653 48.0383 107.926 48.0545 106.453C48.1454 98.2213 48.0695 89.9876 48.1285 81.7552C48.1376 80.485 47.6874 79.8161 46.6173 79.2149C41.7461 76.478 36.9202 73.6605 32.0765 70.8745C29.7209 69.5195 27.3423 68.2023 25.0239 66.7865C24.6254 66.5432 24.2528 65.8929 24.2474 65.4262C24.1916 60.5199 24.1959 55.6124 24.2425 50.7058C24.2466 50.2712 24.5527 49.6415 24.9096 49.4386C28.846 47.2014 32.8202 45.0309 36.8837 42.764Z" fill="#F0B90B"></path> <path d="M545.791 77.9208C545.791 88.961 545.791 100.001 545.791 111.265C541.165 111.265 536.621 111.265 531.912 111.095C531.731 110.599 531.701 110.273 531.701 109.946C531.699 84.0578 531.699 58.1693 531.703 32.2808C531.703 31.7918 531.756 31.3029 531.784 30.814C536.361 30.814 540.938 30.814 545.681 30.814C545.681 41.8391 545.681 52.8732 545.681 64.026C558.403 64.026 570.959 64.026 583.685 64.026C583.685 53.0111 583.685 41.9773 583.685 30.8542C588.413 30.8542 592.972 30.8542 597.663 30.8542C597.663 57.5482 597.663 84.2861 597.663 111.148C593.144 111.148 588.546 111.148 583.721 111.148C583.721 100.195 583.721 89.2061 583.631 77.9567C583.329 77.653 583.119 77.5717 582.908 77.5716C570.927 77.5647 558.945 77.5612 546.963 77.5788C546.572 77.5793 546.182 77.8018 545.791 77.9208Z" fill="#F0B90B"></path> <path d="M639.995 48.128C642.194 43.0841 644.429 38.1907 646.516 33.2347C647.534 30.8167 647.408 30.7638 650.019 30.7638C653.345 30.7638 656.671 30.7901 659.996 30.746C660.869 30.7344 661.276 30.979 661.631 31.8457C663.225 35.7361 664.938 39.5777 666.611 43.4361C669.106 49.1945 671.593 54.9567 674.103 60.7088C676.084 65.2465 678.094 69.7712 680.09 74.302C682.988 80.8793 685.895 87.4524 688.779 94.0356C691.255 99.6868 693.707 105.348 696.157 111.011C696.256 111.241 696.221 111.529 696.263 111.926C691.454 111.926 686.719 111.952 681.986 111.883C681.558 111.876 680.946 111.342 680.748 110.904C679.012 107.074 677.348 103.212 675.67 99.3561C674.821 97.4038 674.064 95.4045 673.09 93.5175C672.842 93.0389 671.922 92.6584 671.31 92.6554C660.624 92.6039 649.937 92.7103 639.254 92.5543C636.539 92.5147 634.91 92.9743 633.888 95.8306C632.154 100.678 629.914 105.344 627.87 110.079C627.366 111.246 626.773 112.046 625.161 111.983C620.915 111.819 616.66 111.928 612.167 111.928C621.47 90.6222 630.72 69.4375 639.995 48.128ZM648.863 60.7573C646.242 66.8526 643.621 72.9479 640.957 79.1443C649.93 79.1443 658.753 79.1443 667.813 79.1443C663.342 68.8516 658.907 58.6394 654.356 48.1612C652.465 52.5401 650.736 56.5436 648.863 60.7573Z" fill="#F0B90B"></path> <path d="M461.7 106.695C459.007 104.562 456.285 102.608 453.892 100.312C448.62 95.2531 445.51 88.923 443.68 81.9095C442.499 77.3808 442.064 72.7564 442.416 68.1266C443.056 59.7022 445.731 51.9584 450.984 45.235C456.989 37.5492 464.798 32.6267 474.298 30.5418C479.787 29.3373 485.323 29.249 490.959 30.027C499.34 31.1841 506.497 34.6652 512.797 40.1575C513.522 40.7891 514.293 41.3677 515.252 42.1399C512.157 45.9098 509.145 49.5774 506.237 53.1206C503.584 51.1703 501.042 49.1486 498.347 47.3558C494.453 44.7649 490.157 43.4591 485.425 43.1379C479.444 42.7321 474.065 44.2906 469.307 47.6333C463.524 51.696 459.909 57.4313 458.437 64.3539C456.462 73.645 458.072 82.3639 463.858 89.9309C467.779 95.0587 473.139 98.2329 479.696 99.1867C485.777 100.071 491.631 99.3815 497.025 96.4724C499.771 94.9916 502.179 92.8711 504.681 90.9628C505.306 90.4867 505.703 89.7124 506.122 89.1788C509.44 92.4991 512.472 95.5328 515.517 98.5803C504.738 111.82 481.238 117.866 461.7 106.695Z" fill="#F0B90B"></path> <path d="M711.66 39.2727C711.66 36.3924 711.66 33.6757 711.66 30.8618C716.372 30.8618 720.97 30.8618 725.649 30.8618C725.649 57.6151 725.649 84.3167 725.649 111.146C721.077 111.146 716.479 111.146 711.66 111.146C711.66 87.2663 711.66 63.3513 711.66 39.2727Z" fill="#F0B90B"></path> <path d="M86.3808 120.109C86.3808 118.093 86.2946 116.233 86.4306 114.39C86.4745 113.794 86.9656 113.012 87.4833 112.705C92.8812 109.496 98.323 106.36 103.76 103.217C105.511 102.205 107.237 101.128 109.068 100.282C110.096 99.8072 110.293 99.2169 110.288 98.1963C110.249 90.294 110.325 82.3905 110.221 74.4894C110.198 72.7249 110.672 71.6893 112.228 70.7853C116.32 68.4084 120.299 65.835 124.326 63.3455C124.451 63.2682 124.614 63.2529 124.907 63.1639C124.938 63.6967 124.987 64.1563 124.987 64.6159C124.991 78.459 124.984 92.3021 125.005 106.145C125.007 107.14 124.838 107.767 123.836 108.335C114.666 113.529 105.54 118.798 96.4133 124.068C93.2775 125.879 90.1799 127.756 87.0592 129.593C86.8887 129.693 86.6649 129.703 86.3808 129.777C86.3808 126.571 86.3808 123.422 86.3808 120.109Z" fill="#F0B90B"></path> <path d="M109.924 44.6722C105.407 41.852 100.974 39.1358 96.287 36.2635C97.8114 35.346 99.1976 34.5199 100.576 33.6805C103.439 31.9367 106.324 30.2276 109.143 28.4149C110.096 27.8018 110.781 27.8311 111.736 28.4307C115.564 30.8329 119.472 33.1072 123.296 35.5144C123.802 35.8326 124.281 36.6388 124.291 37.2271C124.371 41.9637 124.32 46.7023 124.351 51.44C124.357 52.2799 124.152 52.761 123.354 53.2267C119.68 55.371 116.074 57.6314 112.438 59.8418C111.815 60.2205 111.168 60.5582 110.266 61.0634C110.266 57.3241 110.295 53.8665 110.255 50.4096C110.233 48.531 110.095 46.6538 109.924 44.6722Z" fill="#F0B90B"></path> <path d="M65.7564 125.347C69.1135 123.318 72.3516 121.313 75.9104 119.11C75.9104 122.8 75.9104 126.045 75.9104 129.29C75.9104 130.87 75.8119 132.457 75.9409 134.026C76.0485 135.335 75.5641 136.108 74.4752 136.751C70.8591 138.888 67.2899 141.104 63.6813 143.254C62.6749 143.853 61.7651 144.228 60.4786 143.391C56.739 140.959 52.8408 138.772 49.0405 136.431C48.6102 136.166 48.1454 135.534 48.1396 135.067C48.0757 129.904 48.0994 124.74 48.0994 119.244C50.3229 120.548 52.334 121.691 54.308 122.895C56.4858 124.223 58.628 125.609 60.7892 126.965C61.6057 127.477 62.3225 127.66 63.1787 126.848C63.8565 126.206 64.8076 125.852 65.7564 125.347Z" fill="#F0B90B"></path> <path d="M59.2155 43.202C55.4271 40.935 51.7588 38.6906 47.8168 36.2789C49.368 35.381 50.7258 34.5989 52.0801 33.8106C55.2079 31.99 58.3417 30.1798 61.4553 28.3353C62.2717 27.8516 62.8424 27.8375 63.7481 28.4095C67.929 31.0497 72.2097 33.5317 76.6982 36.216C74.9569 37.2898 73.3719 38.2987 71.7566 39.2562C69.1453 40.8039 66.4874 42.2744 63.9027 43.8646C62.6304 44.6473 61.4823 45.0641 60.2496 43.8741C59.9838 43.6175 59.6423 43.4392 59.2155 43.202Z" fill="#F0B90B"></path> <path d="M25.2528 95.1181C24.8394 94.6046 24.2594 94.1768 24.2543 93.7423C24.1919 88.413 24.2136 83.0827 24.2136 77.4141C25.8788 78.3657 27.3754 79.1816 28.833 80.0622C31.6971 81.7926 34.5501 83.5423 37.3786 85.3299C37.7649 85.574 38.2387 86.079 38.2431 86.468C38.3006 91.6318 38.2815 96.7964 38.2815 102.473C33.7826 99.9423 29.5679 97.5715 25.2528 95.1181Z" fill="#F0B90B"></path> <path d="M98.3864 79.1047C99.0732 78.6888 99.6591 78.3418 100.449 77.8737C100.449 83.3136 100.473 88.5601 100.405 93.8054C100.4 94.2376 99.8629 94.8117 99.4253 95.0652C96.6167 96.6923 93.7652 98.2452 90.9313 99.8287C89.513 100.621 88.1019 101.427 86.3809 102.4C86.3809 100.543 86.3809 99.0455 86.3809 97.548C86.3809 94.2266 86.3317 90.9039 86.4248 87.5852C86.4423 86.9631 86.87 86.1045 87.3785 85.784C90.9747 83.5177 94.6413 81.3635 98.3864 79.1047Z" fill="#F0B90B"></path> </g> <defs> <clipPath id="clip0_3372_170"> <rect width="818" height="144" fill="white"></rect> </clipPath> </defs> </svg> 