<?xml version="1.0" encoding="UTF-8"?> <!-- Generator: Adobe Illustrator 24.0.1, SVG Export Plug-In . SVG Version: 6.00 Build 0) --> <svg xmlns="http://www.w3.org/2000/svg" xmlns:xlink="http://www.w3.org/1999/xlink" id="Layer_1" x="0px" y="0px" viewBox="0 0 60 60" style="enable-background:new 0 0 60 60;" xml:space="preserve"> <style type="text/css"> .st0{fill:#F8B121;} .st1{fill:url(#SVGID_1_);} .st2{fill:url(#SVGID_2_);} .st3{fill:url(#SVGID_3_);} .st4{fill:url(#SVGID_4_);} .st5{fill:url(#SVGID_5_);} .st6{fill:url(#SVGID_6_);} .st7{fill:url(#SVGID_7_);} .st8{fill:url(#SVGID_8_);} .st9{fill:url(#SVGID_9_);} .st10{fill:#102335;} .st11{fill:#132F55;} </style> <g> <g> <g> <circle class="st0" cx="16.76" cy="16.72" r="1.36"></circle> <circle class="st0" cx="22.17" cy="19.21" r="1.75"></circle> <circle class="st0" cx="22.17" cy="40.79" r="1.75"></circle> <circle class="st0" cx="16.76" cy="43.28" r="1.36"></circle> <circle class="st0" cx="10.85" cy="41.82" r="1.89"></circle> <circle class="st0" cx="5.32" cy="37.46" r="2.41"></circle> <circle class="st0" cx="2.94" cy="30" r="2.94"></circle> <circle class="st0" cx="5.32" cy="22.54" r="2.41"></circle> <circle class="st0" cx="10.93" cy="18.25" r="1.89"></circle> </g> <g> <linearGradient id="SVGID_1_" gradientUnits="userSpaceOnUse" x1="0" y1="30" x2="23.9189" y2="30"> <stop offset="0" style="stop-color:#EB6608"></stop> <stop offset="1" style="stop-color:#F8B121"></stop> </linearGradient> <circle class="st1" cx="16.76" cy="16.72" r="1.36"></circle> <linearGradient id="SVGID_2_" gradientUnits="userSpaceOnUse" x1="0" y1="30" x2="23.9189" y2="30"> <stop offset="0" style="stop-color:#EB6608"></stop> <stop offset="1" style="stop-color:#F8B121"></stop> </linearGradient> <circle class="st2" cx="22.17" cy="19.21" r="1.75"></circle> <linearGradient id="SVGID_3_" gradientUnits="userSpaceOnUse" x1="0" y1="30" x2="23.9189" y2="30"> <stop offset="0" style="stop-color:#EB6608"></stop> <stop offset="1" style="stop-color:#F8B121"></stop> </linearGradient> <circle class="st3" cx="22.17" cy="40.79" r="1.75"></circle> <linearGradient id="SVGID_4_" gradientUnits="userSpaceOnUse" x1="0" y1="30" x2="23.9189" y2="30"> <stop offset="0" style="stop-color:#EB6608"></stop> <stop offset="1" style="stop-color:#F8B121"></stop> </linearGradient> <circle class="st4" cx="16.76" cy="43.28" r="1.36"></circle> <linearGradient id="SVGID_5_" gradientUnits="userSpaceOnUse" x1="0" y1="30" x2="23.9189" y2="30"> <stop offset="0" style="stop-color:#EB6608"></stop> <stop offset="1" style="stop-color:#F8B121"></stop> </linearGradient> <circle class="st5" cx="10.85" cy="41.82" r="1.89"></circle> <linearGradient id="SVGID_6_" gradientUnits="userSpaceOnUse" x1="0" y1="30" x2="23.9189" y2="30"> <stop offset="0" style="stop-color:#EB6608"></stop> <stop offset="1" style="stop-color:#F8B121"></stop> </linearGradient> <circle class="st6" cx="5.32" cy="37.46" r="2.41"></circle> <linearGradient id="SVGID_7_" gradientUnits="userSpaceOnUse" x1="0" y1="30" x2="23.9189" y2="30"> <stop offset="0" style="stop-color:#EB6608"></stop> <stop offset="1" style="stop-color:#F8B121"></stop> </linearGradient> <circle class="st7" cx="2.94" cy="30" r="2.94"></circle> <linearGradient id="SVGID_8_" gradientUnits="userSpaceOnUse" x1="0" y1="30" x2="23.9189" y2="30"> <stop offset="0" style="stop-color:#EB6608"></stop> <stop offset="1" style="stop-color:#F8B121"></stop> </linearGradient> <circle class="st8" cx="5.32" cy="22.54" r="2.41"></circle> <linearGradient id="SVGID_9_" gradientUnits="userSpaceOnUse" x1="0" y1="30" x2="23.9189" y2="30"> <stop offset="0" style="stop-color:#EB6608"></stop> <stop offset="1" style="stop-color:#F8B121"></stop> </linearGradient> <circle class="st9" cx="10.93" cy="18.25" r="1.89"></circle> </g> </g> <g> <path class="st10" d="M18.68,26.38v1.06h-0.64v-0.5h-1.6v0.5h-0.65v-1.06h0.09c0.15,0,0.25-0.1,0.31-0.3 c0.06-0.2,0.1-0.49,0.11-0.86l0.03-0.77h2.01v1.93H18.68z M16.86,25.95c-0.03,0.19-0.08,0.33-0.15,0.43h0.94V25h-0.72l-0.01,0.27 C16.91,25.54,16.89,25.76,16.86,25.95z"></path> <path class="st10" d="M21.27,26.94l0-1.32l-0.64,1.08h-0.31l-0.64-1.05v1.29h-0.65v-2.49h0.58l0.88,1.44l0.86-1.44h0.58l0.01,2.49 H21.27z"></path> <path class="st10" d="M22.45,24.44h0.69v1.46l1.03-1.46h0.66v2.49h-0.69v-1.46l-1.03,1.46h-0.67V24.44z"></path> <path class="st10" d="M27.38,25h-0.76v1.93h-0.69V25h-0.77v-0.56h2.22V25z"></path> <path class="st10" d="M29.43,24.55c0.17,0.07,0.29,0.18,0.38,0.32c0.09,0.14,0.14,0.3,0.14,0.49c0,0.19-0.05,0.35-0.14,0.49 c-0.09,0.14-0.22,0.24-0.38,0.32c-0.17,0.07-0.36,0.11-0.59,0.11h-0.43v0.65H27.7v-2.49h1.14C29.07,24.44,29.27,24.48,29.43,24.55 z M29.13,25.63c0.07-0.06,0.11-0.15,0.11-0.27c0-0.12-0.04-0.21-0.11-0.27c-0.07-0.06-0.18-0.1-0.33-0.1h-0.39v0.73h0.39 C28.95,25.73,29.06,25.7,29.13,25.63z"></path> <path class="st10" d="M30.27,24.44h0.69v1.46l1.03-1.46h0.66v2.49h-0.69v-1.46l-1.03,1.46h-0.67V24.44z"></path> <path class="st10" d="M33.19,24.44h0.69v1.46l1.03-1.46h0.66v2.49h-0.69v-1.46l-1.03,1.46h-0.67V24.44z M33.83,24.15 c-0.12-0.1-0.18-0.24-0.18-0.43h0.47c0,0.08,0.02,0.14,0.06,0.19c0.04,0.04,0.1,0.06,0.19,0.06c0.09,0,0.15-0.02,0.2-0.06 c0.04-0.04,0.07-0.1,0.07-0.19h0.47c0,0.19-0.06,0.34-0.18,0.43c-0.12,0.1-0.31,0.15-0.56,0.15 C34.13,24.29,33.94,24.24,33.83,24.15z"></path> <path class="st10" d="M39.31,24.44v2.49h-0.69v-0.85c-0.19,0.06-0.37,0.1-0.53,0.1c-0.35,0-0.62-0.08-0.8-0.25 c-0.18-0.17-0.28-0.41-0.28-0.73v-0.77h0.69v0.69c0,0.32,0.16,0.48,0.47,0.48c0.17,0,0.32-0.03,0.44-0.09v-1.08H39.31z"></path> <path class="st10" d="M42.21,24.44l-1.03,1.93c-0.11,0.21-0.24,0.36-0.4,0.47S40.45,27,40.26,27c-0.14,0-0.28-0.03-0.44-0.09 l0.17-0.52c0.1,0.03,0.18,0.04,0.25,0.04s0.13-0.02,0.18-0.05c0.05-0.03,0.1-0.08,0.15-0.15l-0.97-1.8h0.74l0.58,1.2l0.6-1.2 H42.21z"></path> <path class="st10" d="M44.78,24.44v2.49h-0.7V25h-0.95v1.93h-0.69v-2.49H44.78z"></path> <path class="st10" d="M47.04,24.55c0.17,0.07,0.29,0.18,0.38,0.32c0.09,0.14,0.14,0.3,0.14,0.49c0,0.19-0.05,0.35-0.14,0.49 c-0.09,0.14-0.22,0.24-0.38,0.32c-0.17,0.07-0.36,0.11-0.59,0.11h-0.43v0.65h-0.71v-2.49h1.14 C46.68,24.44,46.88,24.48,47.04,24.55z M46.74,25.63c0.07-0.06,0.11-0.15,0.11-0.27c0-0.12-0.04-0.21-0.11-0.27 c-0.07-0.06-0.18-0.1-0.33-0.1h-0.39v0.73h0.39C46.56,25.73,46.67,25.7,46.74,25.63z"></path> <path class="st10" d="M47.88,24.44h0.69v1.46l1.03-1.46h0.66v2.49h-0.69v-1.46l-1.03,1.46h-0.67V24.44z"></path> <path class="st10" d="M53.17,24.44v2.49h-0.71v-0.97h-0.96v0.97H50.8v-2.49h0.71v0.94h0.96v-0.94H53.17z"></path> <path class="st10" d="M55.43,26.45h-1.05l-0.2,0.48h-0.72l1.1-2.49h0.69l1.1,2.49h-0.73L55.43,26.45z M55.22,25.93l-0.32-0.8 l-0.32,0.8H55.22z"></path> <path class="st10" d="M59.64,26.98l-0.28-0.25c-0.12,0.08-0.25,0.15-0.39,0.19c-0.14,0.04-0.29,0.07-0.45,0.07 c-0.19,0-0.36-0.03-0.51-0.09c-0.15-0.06-0.27-0.14-0.36-0.25c-0.09-0.11-0.13-0.23-0.13-0.36c0-0.16,0.04-0.29,0.12-0.41 c0.08-0.12,0.22-0.23,0.4-0.32c-0.16-0.16-0.24-0.33-0.24-0.5c0-0.13,0.03-0.24,0.1-0.34c0.07-0.1,0.17-0.17,0.29-0.23 c0.13-0.05,0.27-0.08,0.44-0.08c0.23,0,0.42,0.05,0.56,0.16c0.14,0.11,0.21,0.25,0.21,0.44c0,0.13-0.04,0.24-0.11,0.34 c-0.07,0.1-0.19,0.19-0.35,0.28l0.36,0.32c0.05-0.1,0.08-0.22,0.11-0.36l0.55,0.16c-0.05,0.21-0.12,0.4-0.23,0.57L60,26.56 L59.64,26.98z M58.95,26.37l-0.54-0.48c-0.08,0.05-0.14,0.1-0.17,0.15c-0.04,0.05-0.05,0.11-0.05,0.17c0,0.08,0.03,0.14,0.1,0.19 c0.07,0.05,0.16,0.07,0.28,0.07C58.71,26.47,58.83,26.43,58.95,26.37z M58.48,24.9c-0.04,0.03-0.06,0.08-0.06,0.13 c0,0.04,0.01,0.08,0.03,0.12c0.02,0.04,0.06,0.08,0.13,0.14c0.09-0.05,0.16-0.1,0.2-0.14c0.04-0.04,0.06-0.09,0.06-0.14 c0-0.05-0.02-0.09-0.05-0.12c-0.03-0.03-0.08-0.04-0.15-0.04C58.57,24.85,58.52,24.87,58.48,24.9z"></path> <path class="st10" d="M18.34,28.72v2.49h-0.7v-1.93H16.7v1.93H16v-2.49H18.34z"></path> <path class="st10" d="M20.6,30.73h-1.05l-0.2,0.48h-0.72l1.1-2.49h0.69l1.1,2.49h-0.73L20.6,30.73z M20.39,30.21l-0.32-0.8 l-0.32,0.8H20.39z"></path> <path class="st10" d="M23.54,28.83c0.17,0.07,0.29,0.18,0.38,0.32c0.09,0.14,0.14,0.3,0.14,0.49c0,0.19-0.05,0.35-0.14,0.49 c-0.09,0.14-0.22,0.24-0.38,0.32c-0.17,0.07-0.36,0.11-0.59,0.11h-0.43v0.65h-0.71v-2.49h1.14 C23.18,28.72,23.37,28.75,23.54,28.83z M23.24,29.91c0.07-0.06,0.11-0.15,0.11-0.27c0-0.12-0.04-0.21-0.11-0.27 c-0.07-0.06-0.18-0.1-0.33-0.1h-0.39V30h0.39C23.05,30,23.16,29.97,23.24,29.91z"></path> <path class="st10" d="M26.33,29.28h-0.76v1.93h-0.69v-1.93H24.1v-0.56h2.22V29.28z"></path> <path class="st10" d="M29.02,28.72v2.49h-0.71v-0.97h-0.96v0.97h-0.71v-2.49h0.71v0.94h0.96v-0.94H29.02z"></path> <path class="st10" d="M31.56,30.67v0.55h-2v-2.49h1.96v0.55h-1.26v0.42h1.11v0.53h-1.11v0.46H31.56z"></path> <path class="st10" d="M33.69,28.83c0.17,0.07,0.29,0.18,0.38,0.32c0.09,0.14,0.14,0.3,0.14,0.49c0,0.19-0.05,0.35-0.14,0.49 c-0.09,0.14-0.22,0.24-0.38,0.32c-0.17,0.07-0.36,0.11-0.59,0.11h-0.43v0.65h-0.71v-2.49h1.14 C33.33,28.72,33.52,28.75,33.69,28.83z M33.39,29.91c0.07-0.06,0.11-0.15,0.11-0.27c0-0.12-0.04-0.21-0.11-0.27 c-0.07-0.06-0.18-0.1-0.33-0.1h-0.39V30h0.39C33.2,30,33.31,29.97,33.39,29.91z"></path> <path class="st10" d="M36.51,29.72c0.17,0.14,0.25,0.34,0.25,0.61c0,0.29-0.09,0.51-0.28,0.66c-0.19,0.15-0.44,0.23-0.77,0.23 h-1.18v-2.49h0.69v0.79h0.58C36.11,29.51,36.34,29.58,36.51,29.72z M35.94,30.61c0.07-0.06,0.11-0.15,0.11-0.27 c0-0.22-0.13-0.32-0.39-0.32h-0.44v0.69h0.44C35.78,30.7,35.87,30.67,35.94,30.61z M37.03,28.72h0.69v2.49h-0.69V28.72z"></path> </g> <g> <path class="st11" d="M16.42,35.86c-0.2-0.11-0.35-0.25-0.46-0.44c-0.11-0.19-0.17-0.4-0.17-0.64c0-0.24,0.06-0.45,0.17-0.64 s0.27-0.34,0.46-0.44c0.2-0.11,0.42-0.16,0.66-0.16c0.2,0,0.38,0.03,0.54,0.1c0.16,0.07,0.3,0.17,0.41,0.3l-0.29,0.27 c-0.17-0.19-0.39-0.28-0.64-0.28c-0.17,0-0.31,0.04-0.44,0.11c-0.13,0.07-0.23,0.17-0.31,0.3c-0.07,0.13-0.11,0.27-0.11,0.44 c0,0.16,0.04,0.31,0.11,0.44c0.07,0.13,0.18,0.23,0.31,0.3c0.13,0.07,0.28,0.11,0.44,0.11c0.25,0,0.47-0.1,0.64-0.29l0.29,0.28 c-0.11,0.13-0.25,0.23-0.41,0.3c-0.16,0.07-0.34,0.1-0.54,0.1C16.83,36.02,16.61,35.97,16.42,35.86z"></path> <path class="st11" d="M18.85,35.86c-0.2-0.11-0.35-0.25-0.46-0.44c-0.11-0.19-0.17-0.4-0.17-0.63c0-0.23,0.06-0.45,0.17-0.63 c0.11-0.19,0.27-0.34,0.46-0.44c0.2-0.11,0.42-0.16,0.66-0.16s0.47,0.05,0.66,0.16c0.2,0.11,0.35,0.25,0.46,0.44 c0.11,0.19,0.17,0.4,0.17,0.64c0,0.24-0.06,0.45-0.17,0.64c-0.11,0.19-0.27,0.34-0.46,0.44c-0.2,0.11-0.42,0.16-0.66,0.16 S19.04,35.97,18.85,35.86z M19.94,35.52c0.13-0.07,0.23-0.17,0.3-0.3c0.07-0.13,0.11-0.27,0.11-0.44c0-0.16-0.04-0.31-0.11-0.43 c-0.07-0.13-0.17-0.23-0.3-0.3c-0.13-0.07-0.27-0.11-0.43-0.11c-0.16,0-0.3,0.04-0.43,0.11c-0.13,0.07-0.23,0.17-0.3,0.3 s-0.11,0.27-0.11,0.43c0,0.16,0.04,0.31,0.11,0.44s0.17,0.23,0.3,0.3c0.13,0.07,0.27,0.11,0.43,0.11 C19.67,35.63,19.82,35.59,19.94,35.52z"></path> <path class="st11" d="M23.29,33.58v2.41h-0.44v-2.03H21.9l-0.02,0.6c-0.01,0.34-0.04,0.61-0.08,0.82 c-0.04,0.21-0.11,0.37-0.21,0.48c-0.1,0.11-0.23,0.16-0.4,0.16c-0.06,0-0.14-0.01-0.24-0.03l0.03-0.39 c0.03,0.01,0.06,0.01,0.1,0.01c0.14,0,0.24-0.08,0.3-0.25s0.09-0.43,0.11-0.79l0.03-1H23.29z"></path> <path class="st11" d="M26.11,33.58v2.41h-0.45v-1.03h-1.24v1.03h-0.45v-2.41h0.45v0.99h1.24v-0.99H26.11z"></path> <path class="st11" d="M29.24,35.61v0.91h-0.41v-0.53h-2.04v-2.41h0.44v2.03h1.21v-2.03h0.44v2.03H29.24z"></path> <path class="st11" d="M31.46,35.61v0.37h-1.81v-2.41h1.76v0.37H30.1v0.63h1.16v0.37H30.1v0.66H31.46z"></path> <path class="st11" d="M34.84,34.94c0.08,0.1,0.12,0.22,0.12,0.37c0,0.21-0.08,0.37-0.23,0.49c-0.16,0.12-0.38,0.18-0.68,0.18 h-1.14v-2.41h1.08c0.27,0,0.48,0.05,0.63,0.16c0.15,0.11,0.23,0.26,0.23,0.46c0,0.13-0.03,0.24-0.09,0.33 c-0.06,0.09-0.15,0.16-0.26,0.21C34.64,34.77,34.76,34.85,34.84,34.94z M33.35,34.61h0.6c0.14,0,0.25-0.03,0.33-0.09 s0.11-0.14,0.11-0.25c0-0.11-0.04-0.2-0.11-0.26c-0.08-0.06-0.19-0.09-0.33-0.09h-0.6V34.61z M34.51,35.28 c0-0.23-0.16-0.35-0.47-0.35h-0.69v0.71h0.69C34.35,35.64,34.51,35.52,34.51,35.28z"></path> <path class="st11" d="M37.07,34.95c0.08,0.1,0.12,0.22,0.12,0.36c0,0.14-0.05,0.27-0.14,0.38c-0.09,0.11-0.22,0.19-0.38,0.25 c-0.16,0.06-0.33,0.09-0.51,0.09c-0.16,0-0.32-0.02-0.48-0.07c-0.16-0.04-0.31-0.11-0.45-0.2l0.14-0.33 c0.11,0.07,0.22,0.13,0.35,0.16c0.13,0.04,0.26,0.06,0.38,0.06c0.18,0,0.33-0.04,0.45-0.11c0.12-0.07,0.18-0.17,0.18-0.29 c0-0.11-0.04-0.19-0.13-0.24c-0.09-0.05-0.21-0.08-0.36-0.08h-0.56v-0.35h0.53c0.13,0,0.24-0.03,0.31-0.08 c0.08-0.05,0.11-0.13,0.11-0.22c0-0.11-0.05-0.2-0.15-0.26c-0.1-0.06-0.23-0.09-0.39-0.09c-0.11,0-0.22,0.02-0.33,0.05 c-0.11,0.03-0.22,0.08-0.32,0.14l-0.14-0.36c0.12-0.07,0.25-0.12,0.39-0.15c0.14-0.03,0.28-0.05,0.41-0.05 c0.18,0,0.34,0.03,0.49,0.08c0.15,0.06,0.27,0.13,0.36,0.24c0.09,0.1,0.13,0.22,0.13,0.36c0,0.12-0.03,0.22-0.1,0.31 c-0.06,0.09-0.15,0.16-0.26,0.21C36.88,34.78,36.99,34.85,37.07,34.95z"></path> <path class="st11" d="M38.15,35.86c-0.2-0.11-0.35-0.25-0.46-0.44c-0.11-0.19-0.17-0.4-0.17-0.63c0-0.23,0.06-0.45,0.17-0.63 c0.11-0.19,0.27-0.34,0.46-0.44s0.42-0.16,0.66-0.16s0.47,0.05,0.66,0.16c0.2,0.11,0.35,0.25,0.46,0.44 c0.11,0.19,0.17,0.4,0.17,0.64c0,0.24-0.06,0.45-0.17,0.64c-0.11,0.19-0.27,0.34-0.46,0.44c-0.2,0.11-0.42,0.16-0.66,0.16 S38.35,35.97,38.15,35.86z M39.25,35.52c0.13-0.07,0.23-0.17,0.3-0.3c0.07-0.13,0.11-0.27,0.11-0.44c0-0.16-0.04-0.31-0.11-0.43 c-0.07-0.13-0.17-0.23-0.3-0.3c-0.13-0.07-0.27-0.11-0.43-0.11c-0.16,0-0.3,0.04-0.43,0.11c-0.13,0.07-0.23,0.17-0.3,0.3 c-0.07,0.13-0.11,0.27-0.11,0.43c0,0.16,0.04,0.31,0.11,0.44c0.07,0.13,0.17,0.23,0.3,0.3c0.13,0.07,0.27,0.11,0.43,0.11 C38.98,35.63,39.12,35.59,39.25,35.52z"></path> <path class="st11" d="M40.61,33.58h0.44v1.71l1.29-1.71h0.42v2.41h-0.44v-1.71l-1.29,1.71h-0.42V33.58z M41.21,33.29 c-0.1-0.08-0.16-0.21-0.16-0.37h0.31c0,0.08,0.03,0.15,0.08,0.2c0.05,0.05,0.13,0.07,0.23,0.07c0.1,0,0.18-0.02,0.23-0.07 C41.97,33.07,42,33,42,32.92h0.31c0,0.16-0.06,0.28-0.16,0.37c-0.11,0.09-0.26,0.13-0.47,0.13 C41.47,33.42,41.32,33.37,41.21,33.29z"></path> <path class="st11" d="M45.8,35.61v0.89h-0.41v-0.51h-1.85v0.51h-0.42l0-0.89h0.1c0.15-0.01,0.26-0.12,0.32-0.34 c0.06-0.22,0.1-0.53,0.11-0.93l0.03-0.76h1.76v2.03H45.8z M43.97,35.16c-0.04,0.21-0.1,0.36-0.19,0.45h1.22v-1.65h-0.94 l-0.02,0.43C44.04,34.69,44.01,34.95,43.97,35.16z"></path> <path class="st11" d="M48.02,35.61v0.37h-1.81v-2.41h1.76v0.37h-1.31v0.63h1.16v0.37h-1.16v0.66H48.02z M46.62,33.29 c-0.04-0.04-0.06-0.09-0.06-0.15c0-0.06,0.02-0.11,0.06-0.15c0.04-0.04,0.09-0.06,0.15-0.06s0.11,0.02,0.15,0.06 c0.04,0.04,0.06,0.09,0.06,0.15c0,0.06-0.02,0.11-0.06,0.15c-0.04,0.04-0.09,0.06-0.15,0.06S46.66,33.32,46.62,33.29z M47.29,33.29c-0.04-0.04-0.06-0.09-0.06-0.15c0-0.06,0.02-0.11,0.06-0.15c0.04-0.04,0.09-0.06,0.15-0.06 c0.06,0,0.11,0.02,0.15,0.06c0.04,0.04,0.06,0.09,0.06,0.15c0,0.06-0.02,0.11-0.06,0.15c-0.04,0.04-0.09,0.06-0.15,0.06 C47.37,33.34,47.32,33.32,47.29,33.29z"></path> <path class="st11" d="M50.27,33.96h-0.8v2.03h-0.44v-2.03h-0.79v-0.38h2.04V33.96z"></path> </g> </g> </svg> 