<?xml version="1.0" encoding="UTF-8"?> <svg xmlns="http://www.w3.org/2000/svg" id="Слой_7" data-name="Слой 7" viewBox="0 0 287.74 54.92"> <title>мозлаб</title> <g> <path d="M469.73,110.62a5.53,5.53,0,0,1-2.14-.43,5.94,5.94,0,0,1-3.59-5.51l.06-27.87L435,108.32a5.59,5.59,0,0,1-8.1.19,6.07,6.07,0,0,1-.19-8.38l39-42.23A5.59,5.59,0,0,1,472,56.5a5.92,5.92,0,0,1,3.6,5.51l-.07,27.87,29.57-32a5.6,5.6,0,0,1,6.28-1.4,5.93,5.93,0,0,1,3.59,5.5v42.5a5.73,5.73,0,1,1-11.46,0V76.77l-29.6,32A5.64,5.64,0,0,1,469.73,110.62Z" transform="translate(-425.07 -55.83)"></path> <path d="M601.3,109.87H570.5a4.86,4.86,0,0,1-3.43-8.3L590,76H570.41a4.86,4.86,0,0,1,0-9.72h31.28a4.86,4.86,0,0,1,3.44,8.3l-22.89,25.58H601.3a4.86,4.86,0,1,1,0,9.72Z" transform="translate(-425.07 -55.83)"></path> <path d="M541.83,110.75A22.8,22.8,0,1,1,564.63,88,22.82,22.82,0,0,1,541.83,110.75Zm0-36.14A13.35,13.35,0,1,0,555.18,88,13.36,13.36,0,0,0,541.83,74.61Z" transform="translate(-425.07 -55.83)"></path> <path d="M620.06,105.13a5,5,0,0,1-1.48,3.65,4.7,4.7,0,0,1-3.51,1.41,4.62,4.62,0,0,1-3.43-1.41,5.15,5.15,0,0,1-1.39-3.65V61.19a4.92,4.92,0,0,1,5-5,4.35,4.35,0,0,1,3.44,1.49,4.89,4.89,0,0,1,1.39,3.56Z" transform="translate(-425.07 -55.83)"></path> <path d="M661.05,66a4.63,4.63,0,0,1,3.42,1.35,4.75,4.75,0,0,1,1.36,3.5V105.2a4.93,4.93,0,0,1-1.36,3.5,5,5,0,0,1-6.85,0,4.92,4.92,0,0,1-1.35-3.5v-3.91l1.75,0a4.67,4.67,0,0,1-1.11,2.55,15.92,15.92,0,0,1-3,2.87,19.5,19.5,0,0,1-4.54,2.47,15.89,15.89,0,0,1-5.57,1,18.37,18.37,0,0,1-9.95-2.79,20.49,20.49,0,0,1-7.09-7.8,25,25,0,0,1-2.55-11.47,24.63,24.63,0,0,1,2.55-11.46,20,20,0,0,1,7-7.81A17.34,17.34,0,0,1,643.45,66a18.4,18.4,0,0,1,6.29,1,18.22,18.22,0,0,1,4.94,2.63,13.57,13.57,0,0,1,3.26,3.26,4.89,4.89,0,0,1,1.2,2.71l-2.87,1V70.83a4.63,4.63,0,0,1,1.35-3.42A4.51,4.51,0,0,1,661.05,66ZM645,101.41a10.76,10.76,0,0,0,6.13-1.75,11.54,11.54,0,0,0,4.07-4.78,15,15,0,0,0,1.51-6.77,15.18,15.18,0,0,0-1.51-6.84,11.54,11.54,0,0,0-4.07-4.78A10.76,10.76,0,0,0,645,74.74a10.63,10.63,0,0,0-6.05,1.75,12.15,12.15,0,0,0-4.14,4.78,15.85,15.85,0,0,0-1.43,6.84,15.66,15.66,0,0,0,1.43,6.77,12.15,12.15,0,0,0,4.14,4.78A10.63,10.63,0,0,0,645,101.41Z" transform="translate(-425.07 -55.83)"></path> <path d="M693.27,66.09A17.69,17.69,0,0,1,703.2,69a19.24,19.24,0,0,1,7,7.7,24,24,0,0,1,2.62,11.44,24.46,24.46,0,0,1-2.62,11.52,20.08,20.08,0,0,1-6.91,7.78,17.46,17.46,0,0,1-9.69,2.78,16.87,16.87,0,0,1-6-1,19.74,19.74,0,0,1-4.93-2.62,16.7,16.7,0,0,1-3.25-3.18,5.35,5.35,0,0,1-1.12-2.78l2.47-1v5.8a4.9,4.9,0,0,1-1.35,3.49,5,5,0,0,1-6.84,0,4.72,4.72,0,0,1-1.35-3.49V60.68a4.63,4.63,0,0,1,1.35-3.42,4.8,4.8,0,0,1,6.84,0,4.63,4.63,0,0,1,1.35,3.42V75.62l-1.35-.71a4.34,4.34,0,0,1,1.11-2.47,14.35,14.35,0,0,1,3-2.93A16.68,16.68,0,0,1,688,67,15.18,15.18,0,0,1,693.27,66.09Zm-1.19,8.74A10.79,10.79,0,0,0,686,76.57a12.09,12.09,0,0,0-4.13,4.77,15.16,15.16,0,0,0-1.43,6.75,16,16,0,0,0,1.43,6.83A12.09,12.09,0,0,0,686,99.69a10.79,10.79,0,0,0,6.11,1.74,10.42,10.42,0,0,0,6-1.74,11.53,11.53,0,0,0,4-4.77,15.31,15.31,0,0,0,1.51-6.83,14.53,14.53,0,0,0-1.51-6.75,11.53,11.53,0,0,0-4-4.77A10.42,10.42,0,0,0,692.08,74.83Z" transform="translate(-425.07 -55.83)"></path> </g> </svg> 